<svg xmlns="http://www.w3.org/2000/svg" aria-hidden="true" style="position:absolute;width:0;height:0;overflow:hidden"><defs><symbol id="icon-antenna" viewBox="0 0 32 32"><path fill="#2e2f42" d="m31 22-8-8 1-5a2 2 0 1 0-2-1V7l-5 1-8-8H8L7 2v1h1c-2 2-2 5-2 7 0 5 1 8 4 11v7H3c-1 0-2 1-2 3v1h26v-1c0-2-1-3-3-3h-6v-3h2c3 0 5 0 8-2l1 2h1l1-2v-1zM24 6a1 1 0 0 1 0 2 1 1 0 0 1-1-2zm-2 4v3l-1-1 1-2zm0-1-2 2-2-1 4-1zm2 20 2 2H2l2-2h20zm-7-2v1h-6v-1h6zm-6-1v-4l3-3 3 3v4h-6zm7-2v-2c0-2-2-4-4-4l-3 2C7 16 6 10 9 4l18 19c-3 1-6 2-9 1zm11-1h-1L9 3 8 2h1l21 21h-1z" style="fill:var(--color1, #2e2f42)"/><path fill="#4d5ae5" d="M14 21a2 2 0 0 0 0 3 2 2 0 0 0 0-3zm0 1v-1 1z" style="fill:var(--color2, #4d5ae5)"/></symbol><symbol id="icon-astronaut" viewBox="0 0 32 32"><path fill="#4d5ae5" d="M32 5V4h-2l-1-2h-1l-1 2h-2a1 1 0 0 0 0 1l1 2v2h1l2-1 1 1a1 1 0 1 0 1-1V8l1-2zm-2 1v2l-1-1h-2V5h1V4l1-1v2h2l-1 1zm-4 15h-1v1h1v-1zm0 2h-1v1h1v-1zm1-1h-1v1h1v-1zm-2 0h-1v1h1v-1zm-2 5h-1v1h1v-1zm0 2h-1v1h1v-1zm1-1h-1v1h1v-1zm-2 0h-1v1h1v-1zm-6-3h-1v1h1v-1zm0 2h-1v1h1v-1zm1-1h-1v1h1v-1zm-2 0h-1v1h1v-1zM6 6H5v1h1V6zm0 3H5v1h1V9zm1-2H6v2h1V7zM5 7H4v2h1V7z" style="fill:var(--color2, #4d5ae5)"/><path fill="#2e2f42" d="M25 14h-3l-1 1-2 1h-1a7 7 0 0 0-3-13V2a7 7 0 0 0-6 11H6l-5 2v2l1 1h2l2-1h1l-5 5-1 1a2 2 0 0 0 0 3 1 1 0 0 0 2 0l1-2 2-1 1 1-2 2-1 1a1 1 0 0 0 0 3v-1a2 2 0 0 0 2 1l2-1 2-3 1-1 5-5h4l3-2 1-1v-3zM2 18a1 1 0 0 1 0-1l1-1v1l-1 1zm4-2-2 1v-1l2-1v1zm15-6-1 2-4-2-1-1 2-5c2 1 4 3 4 6zM9 10V9a6 6 0 0 1 7-5V3l-2 5-2 2a2 2 0 0 0 3 1l5 2a6 6 0 0 1-11-3V9zm6 0-1 1v-1h1zM3 25H2v-1 1l1-1h1l-1 1zm3 4H5a1 1 0 0 1 0-1l1-1v1h1l-1 1zm3-3-1 1H7l2-2v-1l-2-2H6l-2 2v-1l2-3 4 5-1 1zm7-7h-1l-4 5-4-4 3-3a1 1 0 1 0-1-1H7v-2h3a7 7 0 0 0 6 2l3 1v2h-3zm4 0v-2l1-1 1 1-2 2zm4-3-1 1-1-1 1-1h1v-1a1 1 0 0 1 0 1v1z" style="fill:var(--color1, #2e2f42)"/><path fill="#2e2f42" d="m14 19-2-2h-1l-2 2a1 1 0 0 0 0 1l2 2a1 1 0 0 0 1 0l2-2a1 1 0 0 0 0-1zm-3 2-1-2 1-1 2 1-2 2zm6-16v1s2 1 2 3h1c0-3-2-3-3-4zm3 5h-1v1h1v-1z" style="fill:var(--color1, #2e2f42)"/></symbol><symbol id="icon-clock" viewBox="0 0 32 32"><path fill="#2e2f42" d="M32 16v-1a16 16 0 1 0-21 15h1l4-13a2 2 0 1 0-1-3v-1l-5-5a1 1 0 0 0-1 1l6 5v3l-4 12a14 14 0 1 1 11-1v-2a1 1 0 0 0-2 0l-3 4a1 1 0 0 0 0 1l5 1a1 1 0 0 0 1 0v-1l-1-1c6-3 10-8 10-14zm-16-1a1 1 0 0 1 0 1 1 1 0 0 1 0-1zm2 15 3-2v3l-3-1z" style="fill:var(--color1, #2e2f42)"/><path fill="#4d5ae5" d="M16 3v2a1 1 0 0 0 1 0V3a1 1 0 0 0-1 0zM4 15a1 1 0 0 0 0 1h1a1 1 0 0 0 0-1H4zm24 1a1 1 0 0 0 0-1h-1a1 1 0 0 0 0 1h1z" style="fill:var(--color2, #4d5ae5)"/></symbol><symbol id="icon-diagram" viewBox="0 0 32 32"><path fill="#4d5ae5" d="M15 15h1v5h-1v-5zm4 2h2v3h-2v-3zm-8 2h1v1h-1v-1zm-3-1h1v2H8v-2z" style="fill:var(--color2, #4d5ae5)"/><path fill="#2e2f42" d="M2 29h25l2-2v-2l-2-2V10l3-3a1 1 0 0 0 2-1 2 2 0 1 0-3 0l-2 2V7l-2-1H4L2 7v16l-2 2v2l2 2zM31 5a1 1 0 0 1 0 1 1 1 0 0 1 0-1zM3 7h23v2l-1 1V8H5v14h20V12l1-1v12H3V7zm5 7a2 2 0 1 0 1 3l2 1h1l4-5 4 3 4-3v8H6V9h18v2l-4 4-4-3h-1l-4 5-1-1-2-2zm1 2a1 1 0 0 1-1 0 1 1 0 0 1 1 0zm3 8h5v1h-5v-1zM1 25l1-1h9v1l2 1h4l1-1v-1h9l1 1v2H1v-2z" style="fill:var(--color1, #2e2f42)"/></symbol><symbol id="icon-tagline-here" viewBox="0 0 59 32"><path d="M29 3h-2l-6 2v13h1l6-1v1h-1l-8 3V4l9-2h3v2l-2-1zm2 2h2l8-2v16a17 17 0 0 1-11 2V5h1zm8 0-1 1a19 19 0 0 1-7 0v13h2l7-1h-1V5zM21 26a1 1 0 0 0-1 0h-1v4h1a1 1 0 0 0 1-1h-1a1 1 0 0 1-1 0v-3a1 1 0 0 1 1 0v1h1v-1zm3 0a1 1 0 0 0-1 0h-1v3l1 1 1-1v-3zm-1 3v-3 3zm5 1v-4h-1v1l-1-1v4-3l1 2v-2 3h1zm3-4h-1v4-2h1v-1a3 3 0 0 0 0-1zm0 1h-1v-1h1v1zm3-1-1 4 1-1v1h1l-1-4zm0 2v-1 1zm4 0-1-2v1l1 3v-4 2zm3-2v1l-1-1h-1l2 2v2-2l1-2h-1zm-22 5v-1 1zm2-1v1h1l-1-1zm2 1h1l-1-1v1h1-1zm3-1zm1 0zm3 1-1-1v1h1zm1 0v-1 1zm4 0zm2 0h1v-1h-1v1zm2 0v-1 1zm0 0zm2 0h1v-1h-1v1z"/></symbol><symbol id="icon-brand" viewBox="0 0 59 32"><path d="M15 25v2h-2v-4h2v2zm-2 0h2v-1h-2v1zm1 1h1-1v-1h-1v1h1zm5 1-1-1h-1v1-4h2v2l-1 1 1 1zm-2-2h2v-1h-2v1zm6 1h-2v1h-1l2-4h1l1 4h-1v-1zm0 0-1-2v2h1zm6 1h-2l-1-2v2h-1v-4h1l1 3v-3h2v4zm4-1-1 1h-2v-4h2l1 1a2 2 0 0 1 0 2zm-1 0v-2h-2v2h2zM23 4s11 3 10 8v9s-10-4-10-9V4zm19 15 7-2v-3c-3 1-6 3-7 5z"/><path d="M41 19c2-2 4-5 8-6V6s-15 5-14 12v12l1-1v-1c1-3 2-6 5-9z"/><path d="m39 24 1-3c-2 2-3 5-3 7v1l3-2-1-3zm1 0 1 3c4-2 8-5 8-9v-1l-8 4-1 3z"/></symbol><symbol id="icon-company" viewBox="0 0 59 32"><path d="M21 28v1h-1l-1-1a1 1 0 0 1 0-1l1-1a2 2 0 0 1 1 0v1h-2v1a1 1 0 0 0 1 0l1 1v-1zm4-1v1l-1 1h-1v-1h-1v-1h1v-1h1l1 1zm0 0h-2v1h2v-1zm2 1 1-2h1v3h-1v-2l-1 1-1-1v2-3l1 2zm3 0v1-3h1v2h-1zm0-1h1-1zm4 2v-1h-1v1h-1l1-3h1v3zm-1-1h1l-1-1v1zm3-2 1 2v-2h1v3h-1l-1-2v2h-1v-3h1zm4 2v1h-1v-3 1h1l1-1-1 2zm-13-5 6-4c2-2 1-4 1-5l-2-3c1 3 1 5-1 7l-4 5z"/><path d="M26 23c3-1 4-3 5-5v-7l-3-2 2 6c0 3-2 6-4 8zm12-7-4 6 2-1 3-4-1-1z"/><path d="m37 15-2-1-2 5-4 4h1l4-3c2-1 3-3 3-5zM26 7l-2-2-5 4-2 5 2 5 7 4c1-2 3-5 3-8l-3-8zm16 8c0-2-1-5-3-6-2-2-5-3-8-3l-4 1 15 12v-4z"/></symbol><symbol id="icon-foster_peters" viewBox="0 0 59 32"><path d="m14 13-3 1c0 2 2 3 3 3s2-1 2-3l-2-1zm18-2-2-4-5-2-5 2c-2 1-2 3-2 4v10s14-2 14-10zM6 24l2 3 3 2 4-2 1-3v-6S6 18 6 24zm5 1h-1v-1l1-1h2v1l-1 1h-1zm10-2v3h-1v-3h1zm0 1v1h-1v-1h1zm1-1zm2 2-1 1h-1v-3h1v1l1 1zm-1 0v-1a1 1 0 0 0 0-1h-1v2h1zm2 0v-1h-1v-1h1a1 1 0 0 1 1 0v1h-1v-1 2h1v1h-1l-1-1h1zm2-2v3-3zm1 0zm2 2v1h-1v-1h1zm-1-2zm1 1v1h-1v-1h1zm0-1zm0 0h2v2h-1v-2 3h-1v-3zm1 3v-1l1 1h-1zm3-1v-1h1l-1-1v3h-1v-3h2v2h-1zm3 0v1h-1v-1h1zm-1-2v3h-1v-3h1zm1 1v1h-1v-1h1zm0-1zm1 0zm1 0zm2 2v1h-1v-1h1zm-1-2v3h-1v-3h1zm1 1v1h-1v-1h1zm0-1zm1 0h1v2h-1l1-1v-1h-1v3-3zm1 3-1-1h1v1zm2-1h-1v-1h-1l1-1a1 1 0 0 1 1 0l1 1h-1v-1h-1v1h1v1h1l-1 1a1 1 0 0 1-1 0v-1h-1 2z"/></symbol><symbol id="icon-tagline" viewBox="0 0 59 32"><path d="m31 15-1-1v-1l1-1 1-1h1v2h-1v-1h-1v3h1v-1h1v2h-1l-1-1zm3 0v-3l1-1 2 1v3l-2 1-1-1zm2 0v-3h-1v3a1 1 0 0 0 1 0zm2-4h1l1 4 1-4h1v5h-1v-3 3h-1l-1-3v3h-1v-5zm5 0h2l1 2-1 1h-1v2h-1v-5zm2 2v-1h-1v1h1zm2-2h2l1 5h-1v-1h-2v1h-1l1-5zm2 3-1-1-1 1h2zm1-3h1l2 3v-3 5l-2-3v3h-1v-5zm5 3-1-3h1v2l1-2h1l-1 3v2h-1v-2zm-23 4h-1v2-2h1zm3 2h-1v-1h-1v1h-1l1-2h1l1 2zm-2-1h1v-1h-1v1zm3 1h1-2v-2h1a2 2 0 0 1 1 0 1 1 0 0 0-1 0h-1v2a1 1 0 0 0 1 0zm3 0v-2 2zm3 0h-1v-2h1v2zm1-2 1 1v-1h1v2h-1l-1-2v2h-1v-2h1zm4 0h-1v1h1-1v1-2h1zM12 5l15 4v12l-15-3V5zm-1-1v14l17 4V8L11 4z"/><path d="M20 29 3 25V10l17 5v14z"/><path d="m11 5 15 4-6 5-15-4 6-5zm0-1-8 6 17 5 8-7-17-4zm10 24 7-6-7-1v7z"/></symbol><symbol id="icon-ya_co" viewBox="0 0 59 32"><path d="m22 4 4 4h-8v18h20v-7l4 4V4H22zm16 15L26 8h12v11zm-4 4H21V11h1v12h12zm-10 7-1-1v2h1v-1l1-1-1 1zm2-1v2-1h-1v1-2h1zm-1 1h1v-1l-1 1zm2 0v-1h2v1h-1 1v1a1 1 0 0 1-2 0v-1zm1 0a1 1 0 0 0-1 0h1v1l1-1h-1zm0 0zm3 0h-1v-1h1v1-1h-1v2a1 1 0 0 0 1 0v-1zm3 0-1-1h-1v2a1 1 0 0 0 1 0v-1h1zm-1 0h-1v-1h1v1z"/></symbol><symbol id="icon-facebook" viewBox="0 0 32 32"><path fill="#f4f4fd" d="M22 6h2V0h-4c-4 0-8 2-8 8v4H8v6h4v14h6V18h6v-6h-6V8l4-2z" style="fill:var(--color4, #f4f4fd)"/></symbol><symbol id="icon-instagram" viewBox="0 0 32 32"><path fill="#f4f4fd" d="M32 10V6l-2-4-4-2H6L2 2 0 6v20l2 4 4 2h20l6-6V10zm-2 12-2 4-2 2-4 2-17-2h1-2V4h24v2l2 4v12z" style="fill:var(--color4, #f4f4fd)"/><path fill="#f4f4fd" d="M16 8a8 8 0 0 0 0 16 8 8 0 0 0 0-16zm0 14a6 6 0 1 1 0-12 6 6 0 1 1 0 12zM26 8a2 2 0 1 1-4 0 2 2 0 1 1 4 0z" style="fill:var(--color4, #f4f4fd)"/></symbol><symbol id="icon-linkedin" viewBox="0 0 32 32"><path fill="#f4f4fd" d="M32 32V20c0-6-2-10-8-10-4 0-6 2-6 4v-4h-6v22h6V22c0-4 0-6 4-6s4 4 4 6v10h6zM0 10h8v22H0V10zM4 0 0 4l4 4 4-4-4-4z" style="fill:var(--color4, #f4f4fd)"/></symbol><symbol id="icon-twitter" viewBox="0 0 32 32"><path fill="#f4f4fd" d="m32 6-4 2 4-4-6 2a6 6 0 0 0-10 4v2L2 4 1 7c0 2 1 4 3 5H2c0 4 2 6 4 6a6 6 0 0 1-2 0c0 4 2 6 6 6a14 14 0 0 1-10 2l10 2c10 0 18-8 18-18l4-4z" style="fill:var(--color4, #f4f4fd)"/></symbol><symbol id="icon-mail" viewBox="0 0 32 32"><path d="M28 5H4C2 5 0 7 0 9v13c0 2 2 4 4 4h24c2 0 4-2 4-4V9c0-2-2-4-4-4zM2 10l7 6-7 5V10zm28 12-2 2H4l-2-2 8-6 4 3a3 3 0 0 0 4 0l4-3 8 6zm0-1-7-5 7-6v11zm-13-2a2 2 0 0 1-2 0L2 9l2-2h24l2 2-13 10z"/></symbol><symbol id="icon-phone" viewBox="0 0 32 32"><path d="M24 0H8C6 0 5 1 5 3v26c0 2 1 3 3 3h16c2 0 3-1 3-3V3c0-2-1-3-3-3zm1 29-1 1H8l-1-1v-2h18v2zm0-3H7V6h18v20zm0-21H7V3l1-1h16l1 1v2zm-7-1h-4l1-1h3v1zm-1 24v1h-1l-1-1h2z"/></symbol></defs></svg>